<?xml version="1.0" standalone="no"?>
<!DOCTYPE svg PUBLIC "-//W3C//DTD SVG 20010904//EN"
 "http://www.w3.org/TR/2001/REC-SVG-20010904/DTD/svg10.dtd">
<svg version="1.0" xmlns="http://www.w3.org/2000/svg"
 width="1024.000000pt" height="1024.000000pt" viewBox="0 0 1024.000000 1024.000000"
 preserveAspectRatio="xMidYMid meet">
<metadata>
Created by potrace 1.16, written by Peter Selinger 2001-2019
</metadata>
<g transform="translate(0.000000,1024.000000) scale(0.100000,-0.100000)"
fill="#000000" stroke="none">
<path d="M4710 9979 c-825 -71 -1611 -345 -2302 -802 -245 -162 -483 -356
-709 -579 -381 -374 -666 -760 -911 -1234 -269 -522 -437 -1070 -514 -1684
-21 -170 -30 -729 -15 -915 36 -428 107 -778 240 -1175 369 -1100 1113 -2027
2106 -2622 542 -325 1143 -540 1780 -637 279 -43 459 -54 805 -48 355 6 520
21 820 77 1371 255 2562 1086 3278 2285 352 590 570 1236 659 1955 26 208 26
862 0 1065 -24 196 -53 370 -83 505 -324 1458 -1269 2665 -2599 3320 -510 252
-979 392 -1579 472 -122 16 -221 20 -511 23 -198 2 -407 -1 -465 -6z m-693
-2341 c26 -22 53 -47 58 -53 6 -7 34 -31 63 -54 57 -44 93 -51 126 -26 34 26
114 19 171 -14 47 -27 75 -54 184 -177 81 -92 304 -283 361 -310 107 -50 155
-76 220 -119 37 -24 89 -49 116 -56 127 -30 177 -61 236 -147 47 -68 131 -154
263 -269 66 -57 146 -127 177 -154 43 -38 60 -60 69 -92 16 -58 6 -163 -18
-196 -25 -33 -182 -160 -252 -203 -29 -18 -88 -58 -130 -89 -42 -31 -103 -71
-135 -88 -73 -39 -109 -65 -211 -156 -44 -39 -109 -92 -145 -117 -87 -60 -329
-186 -409 -212 -80 -26 -94 -45 -61 -81 13 -14 29 -25 37 -25 27 0 94 -74 124
-139 84 -177 92 -190 159 -253 111 -104 212 -193 296 -259 43 -35 104 -87 135
-116 30 -29 80 -63 111 -77 42 -19 72 -43 124 -102 38 -43 82 -89 97 -103 16
-15 50 -45 76 -68 26 -23 73 -82 106 -131 50 -75 71 -97 140 -146 90 -62 127
-94 168 -144 22 -28 27 -44 27 -89 0 -51 -3 -58 -37 -92 -31 -30 -61 -45 -156
-76 -130 -43 -158 -64 -177 -135 -6 -22 -25 -51 -45 -69 -31 -27 -43 -31 -96
-31 -74 0 -108 14 -234 97 -121 81 -192 135 -265 203 -30 29 -88 74 -128 102
-40 27 -116 91 -170 142 -53 51 -117 104 -142 116 -80 41 -133 81 -237 182
-56 55 -108 98 -115 96 -27 -9 -40 -94 -47 -303 -4 -115 -11 -219 -16 -230 -4
-11 -23 -52 -41 -91 -19 -38 -37 -92 -40 -120 -6 -47 -4 -53 45 -125 45 -68
51 -83 51 -129 0 -47 -4 -56 -39 -91 -35 -36 -43 -39 -93 -39 -39 0 -63 6 -79
19 -58 44 -67 45 -128 15 -83 -43 -169 -41 -275 6 -105 46 -155 92 -166 148
-7 39 11 237 25 282 17 53 32 250 23 300 -5 30 -12 162 -15 293 -4 193 -2 250
11 307 25 107 20 247 -24 647 -5 50 -10 237 -10 415 0 313 -5 411 -36 644 -8
61 -14 150 -14 199 0 49 6 138 14 199 32 241 36 337 36 789 0 375 3 474 14
500 30 71 137 137 222 137 48 0 58 -4 101 -42z"/>
<path d="M4434 6245 c-3 -8 1 -46 10 -84 10 -42 16 -116 16 -185 0 -91 3 -116
14 -116 7 0 65 26 127 58 63 31 138 68 167 81 49 21 77 53 65 73 -15 27 -157
104 -261 142 -68 25 -125 46 -128 46 -2 0 -7 -7 -10 -15z"/>
</g>
</svg>
